<?xml version="1.0" encoding="UTF-8" standalone="no"?>
<!DOCTYPE svg PUBLIC "-//W3C//DTD SVG 1.1//EN"
 "http://www.w3.org/Graphics/SVG/1.1/DTD/svg11.dtd">
<!-- Generated by graphviz version 2.43.0 (0)
 -->
<!-- Title: architecture Pages: 1 -->
<svg width="751pt" height="562pt"
 viewBox="0.00 0.00 751.00 562.00" xmlns="http://www.w3.org/2000/svg" xmlns:xlink="http://www.w3.org/1999/xlink">
<g id="graph0" class="graph" transform="scale(1 1) rotate(0) translate(4 558)">
<title>architecture</title>
<polygon fill="white" stroke="transparent" points="-4,4 -4,-558 747,-558 747,4 -4,4"/>
<g id="clust1" class="cluster">
<title>cluster_text</title>
<polygon fill="lightgrey" stroke="lightgrey" points="8,-280 8,-438 278,-438 278,-280 8,-280"/>
<text text-anchor="middle" x="143" y="-422.8" font-family="Times,serif" font-size="14.00">Text Processing</text>
</g>
<g id="clust2" class="cluster">
<title>cluster_images</title>
<polygon fill="lightgrey" stroke="lightgrey" points="286,-280 286,-355 578,-355 578,-280 286,-280"/>
<text text-anchor="middle" x="432" y="-339.8" font-family="Times,serif" font-size="14.00">Image Processing</text>
</g>
<g id="clust3" class="cluster">
<title>cluster_tables</title>
<polygon fill="lightgrey" stroke="lightgrey" points="455,-363 455,-438 735,-438 735,-363 455,-363"/>
<text text-anchor="middle" x="595" y="-422.8" font-family="Times,serif" font-size="14.00">Table Processing</text>
</g>
<!-- upload -->
<g id="node1" class="node">
<title>upload</title>
<ellipse fill="#fdfd96" stroke="black" cx="432" cy="-536" rx="63.09" ry="18"/>
<text text-anchor="middle" x="432" y="-532.3" font-family="Helvetica,sans-Serif" font-size="14.00">Upload PDF</text>
</g>
<!-- extract -->
<g id="node2" class="node">
<title>extract</title>
<ellipse fill="lightgrey" stroke="black" cx="432" cy="-464" rx="66.89" ry="18"/>
<text text-anchor="middle" x="432" y="-460.3" font-family="Helvetica,sans-Serif" font-size="14.00">Extract Data</text>
</g>
<!-- upload&#45;&gt;extract -->
<g id="edge1" class="edge">
<title>upload&#45;&gt;extract</title>
<path fill="none" stroke="black" d="M432,-517.7C432,-509.98 432,-500.71 432,-492.11"/>
<polygon fill="black" stroke="black" points="435.5,-492.1 432,-482.1 428.5,-492.1 435.5,-492.1"/>
</g>
<!-- text_chunk -->
<g id="node3" class="node">
<title>text_chunk</title>
<ellipse fill="#b4d7a8" stroke="black" cx="152" cy="-389" rx="108.58" ry="18"/>
<text text-anchor="middle" x="152" y="-385.3" font-family="Helvetica,sans-Serif" font-size="14.00">Chunk &amp; Process Text</text>
</g>
<!-- extract&#45;&gt;text_chunk -->
<g id="edge2" class="edge">
<title>extract&#45;&gt;text_chunk</title>
<path fill="none" stroke="black" d="M385.76,-450.95C339.94,-439 269.32,-420.59 217.69,-407.13"/>
<polygon fill="black" stroke="black" points="218.52,-403.73 207.96,-404.59 216.75,-410.5 218.52,-403.73"/>
</g>
<!-- image_summaries -->
<g id="node5" class="node">
<title>image_summaries</title>
<ellipse fill="#fed8b1" stroke="black" cx="432" cy="-306" rx="137.58" ry="18"/>
<text text-anchor="middle" x="432" y="-302.3" font-family="Helvetica,sans-Serif" font-size="14.00">Generate Image Summaries</text>
</g>
<!-- extract&#45;&gt;image_summaries -->
<g id="edge3" class="edge">
<title>extract&#45;&gt;image_summaries</title>
<path fill="none" stroke="black" d="M432,-445.71C432,-418.77 432,-366.54 432,-334.42"/>
<polygon fill="black" stroke="black" points="435.5,-334.37 432,-324.37 428.5,-334.37 435.5,-334.37"/>
</g>
<!-- table_summaries -->
<g id="node6" class="node">
<title>table_summaries</title>
<ellipse fill="#cdb4db" stroke="black" cx="595" cy="-389" rx="131.88" ry="18"/>
<text text-anchor="middle" x="595" y="-385.3" font-family="Helvetica,sans-Serif" font-size="14.00">Generate Table Summaries</text>
</g>
<!-- extract&#45;&gt;table_summaries -->
<g id="edge4" class="edge">
<title>extract&#45;&gt;table_summaries</title>
<path fill="none" stroke="black" d="M464.99,-448.23C489.2,-437.38 522.4,-422.51 549.19,-410.52"/>
<polygon fill="black" stroke="black" points="550.68,-413.69 558.37,-406.4 547.81,-407.3 550.68,-413.69"/>
</g>
<!-- text_summaries -->
<g id="node4" class="node">
<title>text_summaries</title>
<ellipse fill="#aec6cf" stroke="black" cx="143" cy="-306" rx="127.28" ry="18"/>
<text text-anchor="middle" x="143" y="-302.3" font-family="Helvetica,sans-Serif" font-size="14.00">Generate Text Summaries</text>
</g>
<!-- text_chunk&#45;&gt;text_summaries -->
<g id="edge5" class="edge">
<title>text_chunk&#45;&gt;text_summaries</title>
<path fill="none" stroke="black" d="M150.09,-370.82C148.91,-360.19 147.37,-346.31 146.02,-334.2"/>
<polygon fill="black" stroke="black" points="149.49,-333.71 144.91,-324.15 142.53,-334.48 149.49,-333.71"/>
</g>
<!-- embeddings -->
<g id="node7" class="node">
<title>embeddings</title>
<polygon fill="#b4d7a8" stroke="black" points="526,-246 326,-246 326,-222 526,-222 538,-234 526,-246"/>
<text text-anchor="middle" x="432" y="-230.3" font-family="Helvetica,sans-Serif" font-size="14.00">Create &amp; Index Embeddings</text>
</g>
<!-- text_summaries&#45;&gt;embeddings -->
<g id="edge6" class="edge">
<title>text_summaries&#45;&gt;embeddings</title>
<path fill="none" stroke="black" d="M204.29,-290.15C247.29,-279.74 305.21,-265.71 351.87,-254.41"/>
<polygon fill="black" stroke="black" points="352.75,-257.8 361.65,-252.04 351.11,-250.99 352.75,-257.8"/>
</g>
<!-- image_summaries&#45;&gt;embeddings -->
<g id="edge7" class="edge">
<title>image_summaries&#45;&gt;embeddings</title>
<path fill="none" stroke="black" d="M432,-287.7C432,-279.98 432,-270.71 432,-262.11"/>
<polygon fill="black" stroke="black" points="435.5,-262.1 432,-252.1 428.5,-262.1 435.5,-262.1"/>
</g>
<!-- table_summaries&#45;&gt;embeddings -->
<g id="edge8" class="edge">
<title>table_summaries&#45;&gt;embeddings</title>
<path fill="none" stroke="black" d="M598.2,-370.8C601.5,-347.41 603.52,-305.58 582,-280 572.61,-268.84 560.58,-260.39 547.41,-253.99"/>
<polygon fill="black" stroke="black" points="548.7,-250.73 538.14,-249.88 545.86,-257.13 548.7,-250.73"/>
</g>
<!-- query -->
<g id="node8" class="node">
<title>query</title>
<ellipse fill="#fed8b1" stroke="black" cx="432" cy="-162" rx="123.48" ry="18"/>
<text text-anchor="middle" x="432" y="-158.3" font-family="Helvetica,sans-Serif" font-size="14.00">Receive &amp; Process Query</text>
</g>
<!-- embeddings&#45;&gt;query -->
<g id="edge9" class="edge">
<title>embeddings&#45;&gt;query</title>
<path fill="none" stroke="black" d="M432,-215.7C432,-207.98 432,-198.71 432,-190.11"/>
<polygon fill="black" stroke="black" points="435.5,-190.1 432,-180.1 428.5,-190.1 435.5,-190.1"/>
</g>
<!-- generate_answer -->
<g id="node9" class="node">
<title>generate_answer</title>
<polygon fill="#aec6cf" stroke="black" points="488.5,-102 363.5,-102 363.5,-78 488.5,-78 500.5,-90 488.5,-102"/>
<text text-anchor="middle" x="432" y="-86.3" font-family="Helvetica,sans-Serif" font-size="14.00">Generate Answer</text>
</g>
<!-- query&#45;&gt;generate_answer -->
<g id="edge10" class="edge">
<title>query&#45;&gt;generate_answer</title>
<path fill="none" stroke="black" d="M432,-143.7C432,-135.98 432,-126.71 432,-118.11"/>
<polygon fill="black" stroke="black" points="435.5,-118.1 432,-108.1 428.5,-118.1 435.5,-118.1"/>
</g>
<!-- display_response -->
<g id="node10" class="node">
<title>display_response</title>
<ellipse fill="lightgrey" stroke="black" cx="432" cy="-18" rx="67.69" ry="18"/>
<text text-anchor="middle" x="432" y="-14.3" font-family="Helvetica,sans-Serif" font-size="14.00">Display in UI</text>
</g>
<!-- generate_answer&#45;&gt;display_response -->
<g id="edge11" class="edge">
<title>generate_answer&#45;&gt;display_response</title>
<path fill="none" stroke="black" d="M432,-71.7C432,-63.98 432,-54.71 432,-46.11"/>
<polygon fill="black" stroke="black" points="435.5,-46.1 432,-36.1 428.5,-46.1 435.5,-46.1"/>
</g>
</g>
</svg>
